{"title":"The Door 2014 HDRIP x264 AC3 TiTAN ","uid":11255925,"size":760939814,"categoryP":"video","categoryS":"movies","magnet":"?xt=urn:btih:d3b4bc1d2c79bdf40ef2385f00e866e1edfba95f&amp;dn=The+Door+2014+HDRIP+x264+AC3+TiTAN+&amp;tr=udp%3A%2F%2Ftracker.openbittorrent.com%3A80&amp;tr=udp%3A%2F%2Fopen.demonii.com%3A1337&amp;tr=udp%3A%2F%2Ftracker.coppersurfer.tk%3A6969&amp;tr=udp%3A%2F%2Fexodus.desync.com%3A6969","seeders":0,"leechers":1,"uploader":".BONE.","files":3,"time":1413899762,"description":" &lt;a href=&quot;http://www.imdb.com/title/tt3765746/&quot; rel=&quot;nofollow&quot; target=&quot;_NEW&quot;&gt;http://www.imdb.com/title/tt3765746/&lt;/a&gt;\n\nSource: OWN\n\nGeneral\n\nFormat : Matroska\nFormat version : Version 2\nFile size : 726 MiB\nDuration : 1h 23mn\nOverall bit rate mode : Variable\nOverall bit rate : 1 216 Kbps\nEncoded date : UTC 2014-10-19 00:33:50\n\nVideo\nID : 1\nFormat : AVC\nFormat/Info : Advanced Video Codec\nFormat profile : &lt;a class=&quot;__cf_email__&quot; href=&quot;/cdn-cgi/l/email-protection&quot; data-cfemail=&quot;bcf4d5dbd4fcf088928d&quot;&gt;[email&amp;#160;protected]&lt;/a&gt;&lt;script cf-hash='f9e31' type=&quot;text/javascript&quot;&gt;\n/* &lt;![CDATA[ */!function(){try{var t=&quot;currentScript&quot;in document?document.currentScript:function(){for(var t=document.getElementsByTagName(&quot;script&quot;),e=t.length;e--;)if(t[e].getAttribute(&quot;cf-hash&quot;))return t[e]}();if(t&amp;&amp;t.previousSibling){var e,r,n,i,c=t.previousSibling,a=c.getAttribute(&quot;data-cfemail&quot;);if(a){for(e=&quot;&quot;,r=parseInt(a.substr(0,2),16),n=2;a.length-n;n+=2)i=parseInt(a.substr(n,2),16)^r,e+=String.fromCharCode(i);e=document.createTextNode(e),c.parentNode.replaceChild(e,c)}}}catch(u){}}();/* ]]&gt; */&lt;/script&gt;\nFormat settings, CABAC : Yes\nFormat settings, ReFrames : 3 frames\nFormat settings, GOP : M=4, N=23\nCodec ID : V_MPEG4/ISO/AVC\nDuration : 1h 23mn\nBit rate mode : Variable\nBit rate : 808 Kbps\nMaximum bit rate : 40.0 Mbps\nWidth : 720 pixels\nHeight : 304 pixels\nDisplay aspect ratio : 2.35:1\nFrame rate mode : Constant\nFrame rate : 23.976 fps\nColor space : YUV\nChroma subsampling : 4:2:0\nBit depth : 8 bits\nScan type : Progressive\nBits/(Pixel*Frame) : 0.154\nStream size : 482 MiB (66%)\nDefault : Yes\nForced : No\nColor primaries : BT.709\nTransfer characteristics : BT.709\nMatrix coefficients : BT.709\n\nAudio\nID : 2\nFormat : AC-3\nFormat/Info : Audio Coding 3\nMode extension : CM (complete main)\nFormat settings, Endianness : Big\nCodec ID : A_AC3\nDuration : 1h 23mn\nBit rate mode : Constant\nBit rate : 384 Kbps\nChannel(s) : 6 channels\nChannel positions : Front: L C R, Side: L R, LFE\nSampling rate : 48.0 KHz\nBit depth : 16 bits\nCompression mode : Lossy\nStream size : 229 MiB (32%)\nLanguage : English\nDefault : Yes\nForced : No\n &lt;a href=&quot;\nhttp://i.imgur.com/EgZvhKQ.png&quot; rel=&quot;nofollow&quot; target=&quot;_NEW&quot;&gt;\nhttp://i.imgur.com/EgZvhKQ.png&lt;/a&gt; &lt;a href=&quot;\nhttp://i.imgur.com/1iC7JF4.png&quot; rel=&quot;nofollow&quot; target=&quot;_NEW&quot;&gt;\nhttp://i.imgur.com/1iC7JF4.png&lt;/a&gt; &lt;a href=&quot;\nhttp://i.imgur.com/yelvVNo.png&quot; rel=&quot;nofollow&quot; target=&quot;_NEW&quot;&gt;\nhttp://i.imgur.com/yelvVNo.png&lt;/a&gt; &lt;a href=&quot;\nhttp://i.imgur.com/jbw8tMo.png&quot; rel=&quot;nofollow&quot; target=&quot;_NEW&quot;&gt;\nhttp://i.imgur.com/jbw8tMo.png&lt;/a&gt;","torrent":{"xt":"urn:btih:d3b4bc1d2c79bdf40ef2385f00e866e1edfba95f","amp;dn":"The+Door+2014+HDRIP+x264+AC3+TiTAN+","amp;tr":["udp%3A%2F%2Ftracker.openbittorrent.com%3A80","udp%3A%2F%2Fopen.demonii.com%3A1337","udp%3A%2F%2Ftracker.coppersurfer.tk%3A6969","udp%3A%2F%2Fexodus.desync.com%3A6969"],"infoHash":"d3b4bc1d2c79bdf40ef2385f00e866e1edfba95f","infoHashBuffer":{"type":"Buffer","data":[211,180,188,29,44,121,189,244,14,242,56,95,0,232,102,225,237,251,169,95]},"announce":[],"urlList":[]}}